# xmcd CD database file
#
# Track frame offsets:
#	150
#	13077
#	27363
#	47575
#	64221
#	79144
#	96967
#	113383
#	132906
#	156647
#	167858
#	185112
#
# Disc length: 2643 seconds
#
# Revision: 0
# Processed by: cddbd v1.5.2PL0 Copyright (c) Steve Scherf et al.
# Submitted via: CDex 1.70beta2
#
DISCID=a20a510c
DTITLE=Shanti Shanti - East Meets South - Sanskrit Soul
DYEAR=2006
DGENRE=New Age
TTITLE0=Shanti Mantra
TTITLE1=Prano
TTITLE2=Ave Maria
TTITLE3=Oh ViriDissima
TTITLE4=Saha Na
TTITLE5=Ayu Suktam
TTITLE6=Center of It All
TTITLE7=Om Namah Shivaya
TTITLE8=Bed of Roses
TTITLE9=Gaude
TTITLE10=Hallelujah
TTITLE11=Goin' Home
EXTD=YEAR: 2006
EXTT0=
EXTT1=
EXTT2=
EXTT3=
EXTT4=
EXTT5=
EXTT6=
EXTT7=
EXTT8=
EXTT9=
EXTT10=
EXTT11=
PLAYORDER=
